<svg width="2500" height="2500" viewBox="0 0 2500 2500" fill="none" xmlns="http://www.w3.org/2000/svg"><path fill="#D9D9D9" d="M0 0h2500v2500H0z"/><path d="M1727.34 848.899c-121.02 0-291.99 11.15-379.36 107.3-37.83 41.651-56.72 109.551-51.82 186.401.64 10.15 6.77 18.8 15.58 22 8.76 3.15 18.39.2 24.38-7.55 48.59-62.95 108.99-113.4 179.65-149.95 6-3.15 13.08-3.4 19.53-.9 5.67 2.25 10.12 6.5 12.44 11.95 4.81 11.2 3.27 25.95-12.72 34.25-.9.5-1.72 1.15-2.63 1.6-.32.15-.68.1-.95.25-174.11 90.1-259.71 247.3-298.58 408.95-28.34-202.4-88.19-321.55-144.73-394.7-40.91-58.4-81.15-89.349-104.397-106.847-4.315-3.251-17.347-13.05-22.751-19.001-8.856-9.75-8.856-25.601 0-35.351 8.855-9.701 23.296-9.701 33.149 1.099 2.408 2.351 6.269 5.351 11.169 8.951l4.04 3c32.88 24.799 94.1 70.849 148.41 169.999 4.86 8.85 14.26 13.6 23.39 11.7 9.26-1.8 16.52-9.65 18.34-19.8 11.86-66.65 6.54-165.551-47.45-225C1064.66 761.149 893.684 750 772.708 750 760.173 749.998 750 761.198 750 774.998c0 133.25 10.126 321.502 97.452 417.702 36.419 40.1 92.594 58.1 148.403 58.1 45.545 0 90.185-12.55 124.385-34.3 46.63 106.4 83.87 265.35 83.87 508.5 0 13.8 10.18 25 22.71 25 12.53 0 22.71-11.2 22.71-25 0-135.65 21.11-298.45 99.63-432.45 31.47 33.85 85.64 55.3 145.68 57.3 2.99.1 5.95.15 8.9.15 60.98 0 114.89-21.05 148.81-58.45 87.37-96.2 97.45-284.45 97.45-417.704.05-13.797-10.08-24.947-22.66-24.947z" fill="#CCC"/></svg>04.11 1481.85 1204.11 1725C1204.11 1738.8 1214.29 1750 1226.82 1750C1239.35 1750 1249.53 1738.8 1249.53 1725C1249.53 1589.35 1270.64 1426.55 1349.16 1292.55C1380.63 1326.4 1434.8 1347.85 1494.84 1349.85C1497.83 1349.95 1500.79 1350 1503.74 1350C1564.72 1350 1618.63 1328.95 1652.55 1291.55C1739.92 1195.35 1750 1007.1 1750 873.846C1750.05 860.049 1739.92 848.899 1727.34 848.899Z" fill="#CCCCCC"/>
</svg>
