<svg width="34" height="34" viewBox="0 0 34 34" fill="none" xmlns="http://www.w3.org/2000/svg"><path d="M21.173 5.313a10.645 10.645 0 017.515 7.515M20.072 9.42a6.386 6.386 0 014.509 4.507m-12.298 2.65a11.202 11.202 0 005.186 5.164 1.053 1.053 0 001.04-.08l3.325-2.216a1.062 1.062 0 011.008-.094l6.22 2.667a1.06 1.06 0 01.638 1.102 6.378 6.378 0 01-6.325 5.567A18.062 18.062 0 015.312 10.625a6.376 6.376 0 015.568-6.324 1.06 1.06 0 011.102.638l2.669 6.226a1.061 1.061 0 01-.088.999l-2.21 3.376a1.053 1.053 0 00-.07 1.037v0z" stroke="currentColor" stroke-width="1.5" stroke-linecap="round" stroke-linejoin="round"/></svg>