<?xml version="1.0" encoding="utf-8"?><svg viewBox="0 0 34 34" xmlns="http://www.w3.org/2000/svg" xmlns:xlink="http://www.w3.org/1999/xlink"><style>:root>svg{display:none}:root>svg:target{display:block}</style><svg fill="none" viewBox="0 0 34 34" id="cart" xmlns="http://www.w3.org/2000/svg"><path d="M11.333 14.167h-4.25L4.25 29.75h25.5l-2.833-15.583h-4.25m-11.334 0v-4.25A5.667 5.667 0 0117 4.25v0a5.667 5.667 0 015.667 5.667v4.25m-11.334 0h11.334m-11.334 0v4.25m11.334-4.25v4.25" stroke="currentColor" stroke-width="1.5" stroke-linecap="round" stroke-linejoin="round"/></svg><svg fill="none" viewBox="0 0 16 16" id="chevron" xmlns="http://www.w3.org/2000/svg"><path d="M3.334 5.667L8 10.333l4.667-4.666" stroke="currentColor" stroke-width="1.5" stroke-linecap="round" stroke-linejoin="round"/></svg><svg fill="none" viewBox="0 0 32 32" id="favorites" xmlns="http://www.w3.org/2000/svg"><path d="M15.999 28.072c-26.666-14.739-8-30.739 0-20.621 8-10.118 26.667 5.882 0 20.621z" stroke="currentColor" stroke-width="1.5"/></svg><svg fill="none" viewBox="0 0 34 34" id="handset" xmlns="http://www.w3.org/2000/svg"><path d="M21.173 5.313a10.645 10.645 0 017.515 7.515M20.072 9.42a6.386 6.386 0 014.509 4.507M12.283 16.577a11.202 11.202 0 005.186 5.164 1.053 1.053 0 001.04-.08l3.325-2.216a1.062 1.062 0 011.008-.094l6.22 2.667a1.06 1.06 0 01.638 1.102 6.378 6.378 0 01-6.325 5.567A18.062 18.062 0 015.312 10.625a6.376 6.376 0 015.568-6.324 1.06 1.06 0 011.102.638l2.669 6.226a1.061 1.061 0 01-.088.999l-2.21 3.376a1.053 1.053 0 00-.07 1.037v0z" stroke="currentColor" stroke-width="1.5" stroke-linecap="round" stroke-linejoin="round"/></svg><svg fill="none" viewBox="0 0 17 20" id="location" xmlns="http://www.w3.org/2000/svg"><path d="M16 8.364C16 14.09 8.5 19 8.5 19S1 14.09 1 8.364c0-1.953.79-3.826 2.197-5.207A7.571 7.571 0 018.5 1c1.99 0 3.897.776 5.303 2.157A7.296 7.296 0 0116 8.364z" stroke="currentColor" stroke-linecap="round" stroke-linejoin="round"/><path d="M8.5 10.818c1.38 0 2.5-1.099 2.5-2.454 0-1.356-1.12-2.455-2.5-2.455S6 7.008 6 8.364c0 1.355 1.12 2.454 2.5 2.454z" stroke="currentColor" stroke-linecap="round" stroke-linejoin="round"/></svg><svg fill="none" viewBox="0 0 32 32" id="personal_area" xmlns="http://www.w3.org/2000/svg"><path d="M16 14.667A5.333 5.333 0 1016 4a5.333 5.333 0 000 10.667zM20 18.667h-8c-3.682 0-6.98 3.4-4.557 6.172C9.091 26.724 11.816 28 16 28s6.908-1.276 8.556-3.161c2.424-2.774-.874-6.172-4.556-6.172z" stroke="currentColor" stroke-width="1.5"/></svg><svg fill="none" viewBox="0 0 32 32" id="search" xmlns="http://www.w3.org/2000/svg"><path d="M14.667 25.333c5.89 0 10.666-4.775 10.666-10.666S20.558 4 14.667 4 4 8.776 4 14.667c0 5.89 4.776 10.666 10.667 10.666zM28 28l-5.8-5.8" stroke="currentColor" stroke-width="1.5" stroke-linecap="round" stroke-linejoin="round"/></svg></svg>